# xmcd CD database file generated by Grip 3.2.0
# 
# Track frame offsets:
#       150
#       10018
#       29744
#       56509
#       80111
#       106170
#       127788
#       180938
#       209771
#       239969
#       262335
#       286493
# 
# Disc length: 3879 seconds
# 
# Revision: 1
# Processed by: cddbd v1.5.1PL0 Copyright (c) Steve Scherf et al.
# Submitted via: Grip 3.2.0
# 
DISCID=b20f250c
DTITLE=Goma - In A Jungle
DYEAR=2003
DGENRE=Tribal
TTITLE0=Jungle Again
TTITLE1=Wake The Spirit Up
TTITLE2=Goma feat. Ras Takashi - Wackie's Far East Chapter - Jungle Wise
TTITLE3=Chase The Devil Away
TTITLE4=Germination
TTITLE5=Goma feat. Ras Takashi - Wackie's Far East Chapter - Praising
TTITLE6=Deep Sea Ball
TTITLE7=Promised Wanderer
TTITLE8=Harmonic Bamboo Orchestra
TTITLE9=Rain, Frogs and Ricefield
TTITLE10=Goma feat. Ill-Bosstino - Tha Blue Herb - Pandra's Voices
TTITLE11=For Jungle
EXTD=
EXTT0=
EXTT1=
EXTT2=
EXTT3=
EXTT4=
EXTT5=
EXTT6=
EXTT7=
EXTT8=
EXTT9=
EXTT10=
EXTT11=
PLAYORDER=
